<?xml version="1.0" encoding="UTF-8" standalone="no"?>
<svg
   data-name="Layer 1"
   viewBox="0 0 100 100"
   x="0px"
   y="0px"
   version="1.1"
   id="svg6"
   sodipodi:docname="trash.svg"
   inkscape:version="1.2 (dc2aeda, 2022-05-15)"
   xmlns:inkscape="http://www.inkscape.org/namespaces/inkscape"
   xmlns:sodipodi="http://sodipodi.sourceforge.net/DTD/sodipodi-0.dtd"
   xmlns="http://www.w3.org/2000/svg"
   xmlns:svg="http://www.w3.org/2000/svg">
  <defs
     id="defs10" />
  <sodipodi:namedview
     id="namedview8"
     pagecolor="#ffffff"
     bordercolor="#000000"
     borderopacity="0.25"
     inkscape:showpageshadow="2"
     inkscape:pageopacity="0.0"
     inkscape:pagecheckerboard="0"
     inkscape:deskcolor="#d1d1d1"
     showgrid="false"
     inkscape:zoom="2.36"
     inkscape:cx="50"
     inkscape:cy="50"
     inkscape:window-width="1309"
     inkscape:window-height="456"
     inkscape:window-x="0"
     inkscape:window-y="38"
     inkscape:window-maximized="0"
     inkscape:current-layer="svg6" />
  <title
     id="title2">94all</title>
  <path
     d="M80,23.5H67v-3a8,8,0,0,0-8-8H41a8,8,0,0,0-8,8v3H20a4,4,0,0,0,0,8h1.26l4.26,46.91a10,10,0,0,0,10,9.09h29a10,10,0,0,0,10-9.09L78.74,31.5H80a4,4,0,0,0,0-8Zm-39-3H59v3H41ZM66.51,77.68a2,2,0,0,1-2,1.82h-29a2,2,0,0,1-2-1.82L29.29,31.5H70.71Z"
     id="path4"
     style="fill:#ffffff" />
</svg>
